<svg version="1.1" id="Layer_1" xmlns="http://www.w3.org/2000/svg" xmlns:xlink="http://www.w3.org/1999/xlink" x="0px" y="0px"
	 width="100%" viewBox="0 0 64 64" enable-background="new 0 0 64 64" xml:space="preserve">
<path fill="#000000" opacity="1.000000" stroke="none" 
	d="
M41.000072,65.000000 
	C27.333387,65.000000 14.166720,65.000000 1.000040,65.000000 
	C1.000027,43.666683 1.000027,22.333368 1.000013,1.000040 
	C22.333315,1.000027 43.666630,1.000027 64.999954,1.000013 
	C64.999969,22.333315 64.999969,43.666630 64.999985,64.999969 
	C57.166698,65.000000 49.333393,65.000000 41.000072,65.000000 
M29.549664,59.932503 
	C34.203060,59.932293 38.857582,59.996437 43.509548,59.914810 
	C48.758537,59.822701 50.713684,57.960815 50.751556,52.639458 
	C50.845001,39.510887 50.850258,26.380676 50.748501,13.252230 
	C50.707687,7.986267 48.717808,6.144029 43.409851,6.085650 
	C36.762943,6.012544 30.114534,6.046834 23.466928,6.073564 
	C16.987274,6.099617 15.250886,7.819110 15.227270,14.359031 
	C15.188260,25.161427 15.216285,35.964066 15.216231,46.766602 
	C15.216166,59.845200 15.304737,59.932430 29.549664,59.932503 
z"/>
<path fill="#EFECDA" opacity="1.000000" stroke="none" 
	d="
M29.060978,59.932503 
	C15.304737,59.932430 15.216166,59.845200 15.216231,46.766602 
	C15.216285,35.964066 15.188260,25.161427 15.227270,14.359031 
	C15.250886,7.819110 16.987274,6.099617 23.466928,6.073564 
	C30.114534,6.046834 36.762943,6.012544 43.409851,6.085650 
	C48.717808,6.144029 50.707687,7.986267 50.748501,13.252230 
	C50.850258,26.380676 50.845001,39.510887 50.751556,52.639458 
	C50.713684,57.960815 48.758537,59.822701 43.509548,59.914810 
	C38.857582,59.996437 34.203060,59.932293 29.060978,59.932503 
M23.461100,30.439480 
	C22.610071,34.690693 26.554037,42.136631 30.099461,42.972256 
	C34.074898,43.909229 42.095901,39.236340 42.858864,35.135551 
	C43.184990,33.382656 42.844360,30.867319 41.753979,29.615084 
	C39.037476,26.495346 35.716976,23.901535 32.980049,21.407425 
	C29.883644,24.278452 26.900576,27.044392 23.461100,30.439480 
M24.281612,21.026016 
	C27.067749,18.974905 28.293341,11.514628 25.903629,9.315800 
	C24.895269,8.387987 22.851334,7.925568 21.506769,8.237421 
	C20.478436,8.475930 19.524780,10.158322 19.065441,11.394492 
	C18.653469,12.503187 19.221193,13.949405 18.904312,15.124750 
	C17.800917,19.217358 19.380968,21.085295 24.281612,21.026016 
M39.064922,54.518852 
	C40.718914,55.688011 42.372906,56.857170 44.026901,58.026325 
	C44.947418,56.413147 45.981560,54.851460 46.744915,53.167057 
	C47.187389,52.190708 47.494984,50.967331 47.326054,49.943787 
	C47.078697,48.445034 46.748585,46.337494 45.725964,45.744549 
	C44.407227,44.979908 41.976086,44.821880 40.757050,45.580502 
	C39.626110,46.284309 39.270161,48.497757 38.932152,50.121269 
	C38.694950,51.260597 39.060760,52.525467 39.064922,54.518852 
z"/>
<path fill="#080807" opacity="1.000000" stroke="none" 
	d="
M23.689304,30.124907 
	C26.900576,27.044392 29.883644,24.278452 32.980049,21.407425 
	C35.716976,23.901535 39.037476,26.495346 41.753979,29.615084 
	C42.844360,30.867319 43.184990,33.382656 42.858864,35.135551 
	C42.095901,39.236340 34.074898,43.909229 30.099461,42.972256 
	C26.554037,42.136631 22.610071,34.690693 23.689304,30.124907 
z"/>
<path fill="#161615" opacity="1.000000" stroke="none" 
	d="
M23.877769,21.080349 
	C19.380968,21.085295 17.800917,19.217358 18.904312,15.124750 
	C19.221193,13.949405 18.653469,12.503187 19.065441,11.394492 
	C19.524780,10.158322 20.478436,8.475930 21.506769,8.237421 
	C22.851334,7.925568 24.895269,8.387987 25.903629,9.315800 
	C28.293341,11.514628 27.067749,18.974905 23.877769,21.080349 
z"/>
<path fill="#171615" opacity="1.000000" stroke="none" 
	d="
M39.111107,54.126564 
	C39.060760,52.525467 38.694950,51.260597 38.932152,50.121269 
	C39.270161,48.497757 39.626110,46.284309 40.757050,45.580502 
	C41.976086,44.821880 44.407227,44.979908 45.725964,45.744549 
	C46.748585,46.337494 47.078697,48.445034 47.326054,49.943787 
	C47.494984,50.967331 47.187389,52.190708 46.744915,53.167057 
	C45.981560,54.851460 44.947418,56.413147 44.026901,58.026325 
	C42.372906,56.857170 40.718914,55.688011 39.111107,54.126564 
z"/>
</svg>